# xmcd
#
# Track frame offsets:
#	150
#	15620
#	28099
#	37313
#	48992
#	56630
#	67543
#	79190
#	91038
#	100118
#	107615
#	115720
#
# Disc length: 1675 seconds
#
# Revision: 1
# Processed by: cddbd v1.5.2PL0 Copyright (c) Steve Scherf et al.
# Submitted via: audiograbber 1.83.01
#
DISCID=8b06890c
DTITLE=Jim Reeves - He'll Have To Go
DYEAR=1900
DGENRE=country
TTITLE0=Making Believe-
TTITLE1=Four Walls
TTITLE2=According To My Heart
TTITLE3=Just Call Me Lonesome
TTITLE4=Blue Boy
TTITLE5=I Missed You
TTITLE6=Am I Losing You
TTITLE7=I Love You More
TTITLE8=If You Were Only Mine
TTITLE9=I'm Begining To Forget You
TTITLE10=In A Mansion Stands My Love
TTITLE11=He'll Have To Go
EXTD=
EXTT0=
EXTT1=
EXTT2=
EXTT3=
EXTT4=
EXTT5=
EXTT6=
EXTT7=
EXTT8=
EXTT9=
EXTT10=
EXTT11=
PLAYORDER=
